<svg width="74" height="74" viewBox="0 0 74 74" fill="none" xmlns="http://www.w3.org/2000/svg">
<g filter="url(#filter0_dd_1_846)">
<rect x="5" y="1" width="64" height="64" rx="16" fill="white"/>
<rect x="6" y="2" width="62" height="62" rx="15" stroke="#BBF7D0" stroke-width="2"/>
<path d="M28 24H30L30.4 26M30.4 26H46L42 34H32M30.4 26L32 34M32 34L29.707 36.293C29.077 36.923 29.523 38 30.414 38H42M42 38C41.4696 38 40.9609 38.2107 40.5858 38.5858C40.2107 38.9609 40 39.4696 40 40C40 40.5304 40.2107 41.0391 40.5858 41.4142C40.9609 41.7893 41.4696 42 42 42C42.5304 42 43.0391 41.7893 43.4142 41.4142C43.7893 41.0391 44 40.5304 44 40C44 39.4696 43.7893 38.9609 43.4142 38.5858C43.0391 38.2107 42.5304 38 42 38ZM34 40C34 40.5304 33.7893 41.0391 33.4142 41.4142C33.0391 41.7893 32.5304 42 32 42C31.4696 42 30.9609 41.7893 30.5858 41.4142C30.2107 41.0391 30 40.5304 30 40C30 39.4696 30.2107 38.9609 30.5858 38.5858C30.9609 38.2107 31.4696 38 32 38C32.5304 38 33.0391 38.2107 33.4142 38.5858C33.7893 38.9609 34 39.4696 34 40Z" stroke="#16A34A" stroke-width="2" stroke-linecap="round" stroke-linejoin="round"/>
</g>
<defs>
<filter id="filter0_dd_1_846" x="0" y="0" width="74" height="74" filterUnits="userSpaceOnUse" color-interpolation-filters="sRGB">
<feFlood flood-opacity="0" result="BackgroundImageFix"/>
<feColorMatrix in="SourceAlpha" type="matrix" values="0 0 0 0 0 0 0 0 0 0 0 0 0 0 0 0 0 0 127 0" result="hardAlpha"/>
<feMorphology radius="2" operator="erode" in="SourceAlpha" result="effect1_dropShadow_1_846"/>
<feOffset dy="2"/>
<feGaussianBlur stdDeviation="2"/>
<feComposite in2="hardAlpha" operator="out"/>
<feColorMatrix type="matrix" values="0 0 0 0 0 0 0 0 0 0 0 0 0 0 0 0 0 0 0.1 0"/>
<feBlend mode="normal" in2="BackgroundImageFix" result="effect1_dropShadow_1_846"/>
<feColorMatrix in="SourceAlpha" type="matrix" values="0 0 0 0 0 0 0 0 0 0 0 0 0 0 0 0 0 0 127 0" result="hardAlpha"/>
<feMorphology radius="1" operator="erode" in="SourceAlpha" result="effect2_dropShadow_1_846"/>
<feOffset dy="4"/>
<feGaussianBlur stdDeviation="3"/>
<feComposite in2="hardAlpha" operator="out"/>
<feColorMatrix type="matrix" values="0 0 0 0 0 0 0 0 0 0 0 0 0 0 0 0 0 0 0.1 0"/>
<feBlend mode="normal" in2="effect1_dropShadow_1_846" result="effect2_dropShadow_1_846"/>
<feBlend mode="normal" in="SourceGraphic" in2="effect2_dropShadow_1_846" result="shape"/>
</filter>
</defs>
</svg>
