<svg width="48" height="48" viewBox="0 0 48 48" fill="none" xmlns="http://www.w3.org/2000/svg">
<rect width="48" height="48" rx="8" fill="#F0FDF4"/>
<path d="M19 28C18.015 28.0011 17.0643 27.6388 16.3299 26.9823C15.5955 26.3259 15.1291 25.4216 15.0201 24.4427C14.9111 23.4638 15.1671 22.479 15.7391 21.6771C16.3112 20.8753 17.1589 20.3126 18.12 20.097C17.8419 18.8001 18.0904 17.4459 18.8109 16.3322C19.5313 15.2185 20.6646 14.4366 21.9615 14.1585C23.2584 13.8804 24.6127 14.129 25.7264 14.8494C26.84 15.5698 27.6219 16.7031 27.9 18H28C29.24 17.9988 30.4361 18.4583 31.3563 19.2894C32.2765 20.1205 32.8551 21.2639 32.9797 22.4975C33.1043 23.7312 32.7661 24.9672 32.0307 25.9655C31.2953 26.9638 30.2152 27.6533 29 27.9M21 31L24 34M24 34L27 31M24 34V22" stroke="#16A34A" stroke-width="2" stroke-linecap="round" stroke-linejoin="round"/>
</svg>
