<svg width="74" height="74" viewBox="0 0 74 74" fill="none" xmlns="http://www.w3.org/2000/svg">
<g filter="url(#filter0_dd_1_894)">
<rect x="5" y="1" width="64" height="64" rx="16" fill="white"/>
<rect x="6" y="2" width="62" height="62" rx="15" stroke="#FECACA" stroke-width="2"/>
<path d="M37 29V42M37 29V27C37 26.6044 37.1173 26.2178 37.3371 25.8889C37.5568 25.56 37.8692 25.3036 38.2346 25.1522C38.6001 25.0009 39.0022 24.9613 39.3902 25.0384C39.7781 25.1156 40.1345 25.3061 40.4142 25.5858C40.6939 25.8655 40.8844 26.2219 40.9616 26.6098C41.0387 26.9978 40.9991 27.3999 40.8478 27.7654C40.6964 28.1308 40.44 28.4432 40.1111 28.6629C39.7822 28.8827 39.3956 29 39 29H37ZM37 29V26.5C37 26.0055 36.8534 25.5222 36.5787 25.1111C36.304 24.7 35.9135 24.3795 35.4567 24.1903C34.9999 24.0011 34.4972 23.9516 34.0123 24.048C33.5273 24.1445 33.0819 24.3826 32.7322 24.7322C32.3826 25.0819 32.1445 25.5273 32.048 26.0123C31.9516 26.4972 32.0011 26.9999 32.1903 27.4567C32.3795 27.9135 32.7 28.304 33.1111 28.5787C33.5222 28.8534 34.0055 29 34.5 29H37ZM30 33H44M30 33C29.4696 33 28.9609 32.7893 28.5858 32.4142C28.2107 32.0391 28 31.5304 28 31C28 30.4696 28.2107 29.9609 28.5858 29.5858C28.9609 29.2107 29.4696 29 30 29H44C44.5304 29 45.0391 29.2107 45.4142 29.5858C45.7893 29.9609 46 30.4696 46 31C46 31.5304 45.7893 32.0391 45.4142 32.4142C45.0391 32.7893 44.5304 33 44 33M30 33V40C30 40.5304 30.2107 41.0391 30.5858 41.4142C30.9609 41.7893 31.4696 42 32 42H42C42.5304 42 43.0391 41.7893 43.4142 41.4142C43.7893 41.0391 44 40.5304 44 40V33" stroke="#DC2626" stroke-width="2" stroke-linecap="round" stroke-linejoin="round"/>
</g>
<defs>
<filter id="filter0_dd_1_894" x="0" y="0" width="74" height="74" filterUnits="userSpaceOnUse" color-interpolation-filters="sRGB">
<feFlood flood-opacity="0" result="BackgroundImageFix"/>
<feColorMatrix in="SourceAlpha" type="matrix" values="0 0 0 0 0 0 0 0 0 0 0 0 0 0 0 0 0 0 127 0" result="hardAlpha"/>
<feMorphology radius="2" operator="erode" in="SourceAlpha" result="effect1_dropShadow_1_894"/>
<feOffset dy="2"/>
<feGaussianBlur stdDeviation="2"/>
<feComposite in2="hardAlpha" operator="out"/>
<feColorMatrix type="matrix" values="0 0 0 0 0 0 0 0 0 0 0 0 0 0 0 0 0 0 0.1 0"/>
<feBlend mode="normal" in2="BackgroundImageFix" result="effect1_dropShadow_1_894"/>
<feColorMatrix in="SourceAlpha" type="matrix" values="0 0 0 0 0 0 0 0 0 0 0 0 0 0 0 0 0 0 127 0" result="hardAlpha"/>
<feMorphology radius="1" operator="erode" in="SourceAlpha" result="effect2_dropShadow_1_894"/>
<feOffset dy="4"/>
<feGaussianBlur stdDeviation="3"/>
<feComposite in2="hardAlpha" operator="out"/>
<feColorMatrix type="matrix" values="0 0 0 0 0 0 0 0 0 0 0 0 0 0 0 0 0 0 0.1 0"/>
<feBlend mode="normal" in2="effect1_dropShadow_1_894" result="effect2_dropShadow_1_894"/>
<feBlend mode="normal" in="SourceGraphic" in2="effect2_dropShadow_1_894" result="shape"/>
</filter>
</defs>
</svg>
