<svg width="64" height="64" viewBox="0 0 64 64" fill="none" xmlns="http://www.w3.org/2000/svg">
<rect width="64" height="64" rx="12" fill="white" fill-opacity="0.2"/>
<path d="M21.7573 24.4239C21.2002 24.981 20.7582 25.6425 20.4567 26.3704C20.1551 27.0984 19.9999 27.8786 19.9999 28.6666C19.9999 29.4545 20.1551 30.2347 20.4567 30.9627C20.7582 31.6906 21.2002 32.3521 21.7573 32.9092L32 43.1519L42.2427 32.9092C43.3679 31.784 44 30.2579 44 28.6666C44 27.0752 43.3679 25.5491 42.2427 24.4239C41.1174 23.2987 39.5913 22.6665 38 22.6665C36.4087 22.6665 34.8825 23.2987 33.7573 24.4239L32 26.1812L30.2427 24.4239C29.6855 23.8667 29.0241 23.4248 28.2961 23.1232C27.5682 22.8217 26.7879 22.6665 26 22.6665C25.2121 22.6665 24.4318 22.8217 23.7039 23.1232C22.9759 23.4248 22.3145 23.8667 21.7573 24.4239Z" stroke="white" stroke-width="2.66667" stroke-linecap="round" stroke-linejoin="round"/>
</svg>
