<svg width="64" height="64" viewBox="0 0 64 64" fill="none" xmlns="http://www.w3.org/2000/svg">
<rect width="64" height="64" rx="12" fill="white" fill-opacity="0.2"/>
<path d="M39.6213 35.5787C38.0648 36.2842 36.3755 36.6492 34.6666 36.6492C32.9577 36.6492 31.2684 36.2842 29.7119 35.5787M41.7546 30.2107C39.2581 29.7583 36.9692 28.5264 35.2166 26.6919C33.464 24.8573 32.3378 22.5146 31.9999 20C26.0346 20 20.9759 24.16 19.9573 29.768M19.9573 35.136C20.6653 37.7582 22.242 40.0627 24.4294 41.6727C26.6169 43.2828 29.2858 44.1033 31.9999 44C37.9653 44 43.0239 39.84 44.0426 34.232M27.5786 33.7893C27.8479 33.2507 27.9999 32.6427 27.9999 32C27.9999 31.3573 27.8479 30.7493 27.5786 30.2107C27.1755 29.4048 26.5122 28.7586 25.6961 28.3769C24.8799 27.9951 23.9588 27.9 23.0819 28.1071C22.205 28.3141 21.4236 28.8112 20.8645 29.5178C20.3054 30.2243 20.0011 31.099 20.0011 32C20.0011 32.901 20.3054 33.7757 20.8645 34.4822C21.4236 35.1888 22.205 35.6859 23.0819 35.8929C23.9588 36.1 24.8799 36.0049 25.6961 35.6232C26.5122 35.2414 27.1755 34.5952 27.5786 33.7893Z" stroke="white" stroke-width="2.66667" stroke-linecap="round" stroke-linejoin="round"/>
</svg>
