<svg width="40" height="44" viewBox="0 0 40 44" fill="none" xmlns="http://www.w3.org/2000/svg">
<rect width="40" height="40" rx="8" fill="#F0FDF4"/>
<path d="M17.5 25.8333V20.8333C17.5 20.3913 17.3244 19.9674 17.0118 19.6548C16.6993 19.3423 16.2754 19.1667 15.8333 19.1667H14.1667C13.7246 19.1667 13.3007 19.3423 12.9882 19.6548C12.6756 19.9674 12.5 20.3913 12.5 20.8333V25.8333C12.5 26.2754 12.6756 26.6993 12.9882 27.0118C13.3007 27.3244 13.7246 27.5 14.1667 27.5H15.8333C16.2754 27.5 16.6993 27.3244 17.0118 27.0118C17.3244 26.6993 17.5 26.2754 17.5 25.8333ZM17.5 25.8333V17.5C17.5 17.058 17.6756 16.634 17.9882 16.3215C18.3007 16.0089 18.7246 15.8333 19.1667 15.8333H20.8333C21.2754 15.8333 21.6993 16.0089 22.0118 16.3215C22.3244 16.634 22.5 17.058 22.5 17.5V25.8333M17.5 25.8333C17.5 26.2754 17.6756 26.6993 17.9882 27.0118C18.3007 27.3244 18.7246 27.5 19.1667 27.5H20.8333C21.2754 27.5 21.6993 27.3244 22.0118 27.0118C22.3244 26.6993 22.5 26.2754 22.5 25.8333M22.5 25.8333V14.1667C22.5 13.7246 22.6756 13.3007 22.9882 12.9882C23.3007 12.6756 23.7246 12.5 24.1667 12.5H25.8333C26.2754 12.5 26.6993 12.6756 27.0118 12.9882C27.3244 13.3007 27.5 13.7246 27.5 14.1667V25.8333C27.5 26.2754 27.3244 26.6993 27.0118 27.0118C26.6993 27.3244 26.2754 27.5 25.8333 27.5H24.1667C23.7246 27.5 23.3007 27.3244 22.9882 27.0118C22.6756 26.6993 22.5 26.2754 22.5 25.8333Z" stroke="#16A34A" stroke-width="1.66667" stroke-linecap="round" stroke-linejoin="round"/>
</svg>
