<svg width="48" height="48" viewBox="0 0 48 48" fill="none" xmlns="http://www.w3.org/2000/svg">
<rect width="48" height="48" rx="8" fill="#F0FDF4"/>
<path d="M27 29H32L30.595 27.595C30.4063 27.4063 30.2567 27.1822 30.1546 26.9357C30.0525 26.6891 30 26.4249 30 26.158V23C30.0002 21.7589 29.6156 20.5483 28.8992 19.5349C28.1829 18.5214 27.17 17.755 26 17.341V17C26 16.4696 25.7893 15.9609 25.4142 15.5858C25.0391 15.2107 24.5304 15 24 15C23.4696 15 22.9609 15.2107 22.5858 15.5858C22.2107 15.9609 22 16.4696 22 17V17.341C19.67 18.165 18 20.388 18 23V26.159C18 26.697 17.786 27.214 17.405 27.595L16 29H21M27 29V30C27 30.7956 26.6839 31.5587 26.1213 32.1213C25.5587 32.6839 24.7956 33 24 33C23.2044 33 22.4413 32.6839 21.8787 32.1213C21.3161 31.5587 21 30.7956 21 30V29M27 29H21" stroke="#16A34A" stroke-width="2" stroke-linecap="round" stroke-linejoin="round"/>
</svg>
