<svg width="74" height="74" viewBox="0 0 74 74" fill="none" xmlns="http://www.w3.org/2000/svg">
<g filter="url(#filter0_dd_1_882)">
<rect x="5" y="1" width="64" height="64" rx="16" fill="white"/>
<rect x="6" y="2" width="62" height="62" rx="15" stroke="#FECACA" stroke-width="2"/>
<path d="M36 25C36 24.4696 36.2107 23.9609 36.5858 23.5858C36.9609 23.2107 37.4696 23 38 23C38.5304 23 39.0391 23.2107 39.4142 23.5858C39.7893 23.9609 40 24.4696 40 25V26C40 26.2652 40.1054 26.5196 40.2929 26.7071C40.4804 26.8946 40.7348 27 41 27H44C44.2652 27 44.5196 27.1054 44.7071 27.2929C44.8946 27.4804 45 27.7348 45 28V31C45 31.2652 44.8946 31.5196 44.7071 31.7071C44.5196 31.8946 44.2652 32 44 32H43C42.4696 32 41.9609 32.2107 41.5858 32.5858C41.2107 32.9609 41 33.4696 41 34C41 34.5304 41.2107 35.0391 41.5858 35.4142C41.9609 35.7893 42.4696 36 43 36H44C44.2652 36 44.5196 36.1054 44.7071 36.2929C44.8946 36.4804 45 36.7348 45 37V40C45 40.2652 44.8946 40.5196 44.7071 40.7071C44.5196 40.8946 44.2652 41 44 41H41C40.7348 41 40.4804 40.8946 40.2929 40.7071C40.1054 40.5196 40 40.2652 40 40V39C40 38.4696 39.7893 37.9609 39.4142 37.5858C39.0391 37.2107 38.5304 37 38 37C37.4696 37 36.9609 37.2107 36.5858 37.5858C36.2107 37.9609 36 38.4696 36 39V40C36 40.2652 35.8946 40.5196 35.7071 40.7071C35.5196 40.8946 35.2652 41 35 41H32C31.7348 41 31.4804 40.8946 31.2929 40.7071C31.1054 40.5196 31 40.2652 31 40V37C31 36.7348 30.8946 36.4804 30.7071 36.2929C30.5196 36.1054 30.2652 36 30 36H29C28.4696 36 27.9609 35.7893 27.5858 35.4142C27.2107 35.0391 27 34.5304 27 34C27 33.4696 27.2107 32.9609 27.5858 32.5858C27.9609 32.2107 28.4696 32 29 32H30C30.2652 32 30.5196 31.8946 30.7071 31.7071C30.8946 31.5196 31 31.2652 31 31V28C31 27.7348 31.1054 27.4804 31.2929 27.2929C31.4804 27.1054 31.7348 27 32 27H35C35.2652 27 35.5196 26.8946 35.7071 26.7071C35.8946 26.5196 36 26.2652 36 26V25Z" stroke="#DC2626" stroke-width="2" stroke-linecap="round" stroke-linejoin="round"/>
</g>
<defs>
<filter id="filter0_dd_1_882" x="0" y="0" width="74" height="74" filterUnits="userSpaceOnUse" color-interpolation-filters="sRGB">
<feFlood flood-opacity="0" result="BackgroundImageFix"/>
<feColorMatrix in="SourceAlpha" type="matrix" values="0 0 0 0 0 0 0 0 0 0 0 0 0 0 0 0 0 0 127 0" result="hardAlpha"/>
<feMorphology radius="2" operator="erode" in="SourceAlpha" result="effect1_dropShadow_1_882"/>
<feOffset dy="2"/>
<feGaussianBlur stdDeviation="2"/>
<feComposite in2="hardAlpha" operator="out"/>
<feColorMatrix type="matrix" values="0 0 0 0 0 0 0 0 0 0 0 0 0 0 0 0 0 0 0.1 0"/>
<feBlend mode="normal" in2="BackgroundImageFix" result="effect1_dropShadow_1_882"/>
<feColorMatrix in="SourceAlpha" type="matrix" values="0 0 0 0 0 0 0 0 0 0 0 0 0 0 0 0 0 0 127 0" result="hardAlpha"/>
<feMorphology radius="1" operator="erode" in="SourceAlpha" result="effect2_dropShadow_1_882"/>
<feOffset dy="4"/>
<feGaussianBlur stdDeviation="3"/>
<feComposite in2="hardAlpha" operator="out"/>
<feColorMatrix type="matrix" values="0 0 0 0 0 0 0 0 0 0 0 0 0 0 0 0 0 0 0.1 0"/>
<feBlend mode="normal" in2="effect1_dropShadow_1_882" result="effect2_dropShadow_1_882"/>
<feBlend mode="normal" in="SourceGraphic" in2="effect2_dropShadow_1_882" result="shape"/>
</filter>
</defs>
</svg>
