<svg width="74" height="74" viewBox="0 0 74 74" fill="none" xmlns="http://www.w3.org/2000/svg">
<g filter="url(#filter0_dd_1_858)">
<rect x="5" y="1" width="64" height="64" rx="16" fill="white"/>
<rect x="6" y="2" width="62" height="62" rx="15" stroke="#BBF7D0" stroke-width="2"/>
<path d="M37 25V26M43 37H45M39 37H37V41M37 30V33M37 33H37.01M37 33H41.01M41 41H45M29 33H33M45 33H45.01M30 29H32C32.2652 29 32.5196 28.8946 32.7071 28.7071C32.8946 28.5196 33 28.2652 33 28V26C33 25.7348 32.8946 25.4804 32.7071 25.2929C32.5196 25.1054 32.2652 25 32 25H30C29.7348 25 29.4804 25.1054 29.2929 25.2929C29.1054 25.4804 29 25.7348 29 26V28C29 28.2652 29.1054 28.5196 29.2929 28.7071C29.4804 28.8946 29.7348 29 30 29ZM42 29H44C44.2652 29 44.5196 28.8946 44.7071 28.7071C44.8946 28.5196 45 28.2652 45 28V26C45 25.7348 44.8946 25.4804 44.7071 25.2929C44.5196 25.1054 44.2652 25 44 25H42C41.7348 25 41.4804 25.1054 41.2929 25.2929C41.1054 25.4804 41 25.7348 41 26V28C41 28.2652 41.1054 28.5196 41.2929 28.7071C41.4804 28.8946 41.7348 29 42 29ZM30 41H32C32.2652 41 32.5196 40.8946 32.7071 40.7071C32.8946 40.5196 33 40.2652 33 40V38C33 37.7348 32.8946 37.4804 32.7071 37.2929C32.5196 37.1054 32.2652 37 32 37H30C29.7348 37 29.4804 37.1054 29.2929 37.2929C29.1054 37.4804 29 37.7348 29 38V40C29 40.2652 29.1054 40.5196 29.2929 40.7071C29.4804 40.8946 29.7348 41 30 41Z" stroke="#16A34A" stroke-width="2" stroke-linecap="round" stroke-linejoin="round"/>
</g>
<defs>
<filter id="filter0_dd_1_858" x="0" y="0" width="74" height="74" filterUnits="userSpaceOnUse" color-interpolation-filters="sRGB">
<feFlood flood-opacity="0" result="BackgroundImageFix"/>
<feColorMatrix in="SourceAlpha" type="matrix" values="0 0 0 0 0 0 0 0 0 0 0 0 0 0 0 0 0 0 127 0" result="hardAlpha"/>
<feMorphology radius="2" operator="erode" in="SourceAlpha" result="effect1_dropShadow_1_858"/>
<feOffset dy="2"/>
<feGaussianBlur stdDeviation="2"/>
<feComposite in2="hardAlpha" operator="out"/>
<feColorMatrix type="matrix" values="0 0 0 0 0 0 0 0 0 0 0 0 0 0 0 0 0 0 0.1 0"/>
<feBlend mode="normal" in2="BackgroundImageFix" result="effect1_dropShadow_1_858"/>
<feColorMatrix in="SourceAlpha" type="matrix" values="0 0 0 0 0 0 0 0 0 0 0 0 0 0 0 0 0 0 127 0" result="hardAlpha"/>
<feMorphology radius="1" operator="erode" in="SourceAlpha" result="effect2_dropShadow_1_858"/>
<feOffset dy="4"/>
<feGaussianBlur stdDeviation="3"/>
<feComposite in2="hardAlpha" operator="out"/>
<feColorMatrix type="matrix" values="0 0 0 0 0 0 0 0 0 0 0 0 0 0 0 0 0 0 0.1 0"/>
<feBlend mode="normal" in2="effect1_dropShadow_1_858" result="effect2_dropShadow_1_858"/>
<feBlend mode="normal" in="SourceGraphic" in2="effect2_dropShadow_1_858" result="shape"/>
</filter>
</defs>
</svg>
