<svg width="48" height="48" viewBox="0 0 48 48" fill="none" xmlns="http://www.w3.org/2000/svg">
<rect width="48" height="48" rx="8" fill="#F0FDF4"/>
<path d="M15.055 23H17C17.5304 23 18.0391 23.2107 18.4142 23.5858C18.7893 23.9609 19 24.4696 19 25V26C19 26.5304 19.2107 27.0391 19.5858 27.4142C19.9609 27.7893 20.4696 28 21 28C21.5304 28 22.0391 28.2107 22.4142 28.5858C22.7893 28.9609 23 29.4696 23 30V32.945M20 15.935V17.5C20 18.163 20.2634 18.7989 20.7322 19.2678C21.2011 19.7366 21.837 20 22.5 20H23C23.5304 20 24.0391 20.2107 24.4142 20.5858C24.7893 20.9609 25 21.4696 25 22C25 22.5304 25.2107 23.0391 25.5858 23.4142C25.9609 23.7893 26.4696 24 27 24C27.5304 24 28.0391 23.7893 28.4142 23.4142C28.7893 23.0391 29 22.5304 29 22C29 21.4696 29.2107 20.9609 29.5858 20.5858C29.9609 20.2107 30.4696 20 31 20H32.064M27 32.488V30C27 29.4696 27.2107 28.9609 27.5858 28.5858C27.9609 28.2107 28.4696 28 29 28H32.064M33 24C33 25.1819 32.7672 26.3522 32.3149 27.4442C31.8626 28.5361 31.1997 29.5282 30.364 30.364C29.5282 31.1997 28.5361 31.8626 27.4442 32.3149C26.3522 32.7672 25.1819 33 24 33C22.8181 33 21.6478 32.7672 20.5558 32.3149C19.4639 31.8626 18.4718 31.1997 17.636 30.364C16.8003 29.5282 16.1374 28.5361 15.6851 27.4442C15.2328 26.3522 15 25.1819 15 24C15 21.6131 15.9482 19.3239 17.636 17.636C19.3239 15.9482 21.6131 15 24 15C26.3869 15 28.6761 15.9482 30.364 17.636C32.0518 19.3239 33 21.6131 33 24Z" stroke="#16A34A" stroke-width="2" stroke-linecap="round" stroke-linejoin="round"/>
</svg>
